<?xml version="1.0" standalone="no"?><!DOCTYPE svg PUBLIC "-//W3C//DTD SVG 1.1//EN" "http://www.w3.org/Graphics/SVG/1.1/DTD/svg11.dtd"><svg t="1683171207642" class="icon" viewBox="0 0 1024 1024" version="1.1" xmlns="http://www.w3.org/2000/svg" p-id="5130" xmlns:xlink="http://www.w3.org/1999/xlink" width="200" height="200"><path d="M875.015827 76.893274H148.982126c-23.695678 0-43.082214 19.387559-43.082214 43.082215v381.3678h24.350594V125.7234c0-12.879332 10.43977-23.319102 23.319102-23.319102H870.428346c12.879332 0 23.320125 10.43977 23.320125 23.319102v375.618866h24.350594V119.974465c0.001023-23.693632-19.387559-43.081191-43.083238-43.081191z" p-id="5131"></path><path d="M872.833115 146.638755c0-12.879332-10.441816-23.319102-23.320125-23.319102H174.484963c-12.879332 0-23.319102 10.43977-23.319101 23.319102v354.703511h721.668276V146.638755h-0.001023zM512 408.250054c-28.334325 0-51.29527-22.977317-51.29527-51.295269 0-28.317952 47.637973-109.921505 51.29527-109.921506 3.056616 0 51.29527 81.588203 51.29527 109.921506 0 28.335349-22.959921 51.29527-51.29527 51.295269zM662.19986 566.718229H364.147604v-19.693528L105.899912 522.656711v381.3678c0 23.695678 19.387559 43.082214 43.082214 43.082215h726.034725c23.695678 0 43.082214-19.387559 43.082214-43.082215V522.656711l-255.900228 24.36799v19.693528zM266.156826 847.923796l19.741623-37.083594h452.203102l19.742647 37.083594H266.156826z m0-79.897702l19.741623-37.083593h452.203102l19.742647 37.083593H266.156826z m491.686348-79.898724H266.156826l19.741623-37.083594h452.203102l19.741623 37.083594z" p-id="5132"></path></svg>