<?xml version="1.0" standalone="no"?><!DOCTYPE svg PUBLIC "-//W3C//DTD SVG 1.1//EN" "http://www.w3.org/Graphics/SVG/1.1/DTD/svg11.dtd"><svg t="1683171269530" class="icon" viewBox="0 0 1024 1024" version="1.1" xmlns="http://www.w3.org/2000/svg" p-id="6883" xmlns:xlink="http://www.w3.org/1999/xlink" width="200" height="200"><path d="M904.85 531.71C885.29 331.2 716.23 174.49 510.58 174.49S135.81 331.25 116.3 531.82a35.45 35.45 0 0 0 35.31 38.83h717.83a35.55 35.55 0 0 0 35.41-38.94zM510.58 767.87c108.52 0 196.49-88 196.49-196.49h-393c0.02 108.51 87.99 196.49 196.51 196.49z" fill="#DBCCAC" p-id="6884"></path><path d="M924.76 529.77A416.21 416.21 0 0 0 530.58 155V80a20 20 0 0 0-20-20 20 20 0 0 0-20 20v75A416.21 416.21 0 0 0 96.4 529.89a55.45 55.45 0 0 0 55.22 60.76h143.33a216.49 216.49 0 0 0 431.27 0h143.22a55.55 55.55 0 0 0 55.32-60.88z m-414.18 218.1c-90.56 0-165.4-68.55-175.36-156.49h350.72c-9.94 87.94-84.8 156.49-175.36 156.49zM881 545.53a15.44 15.44 0 0 1-11.56 5.13H151.62a15.45 15.45 0 0 1-15.41-16.89C155 340.34 316 194.49 510.58 194.49s355.5 145.81 374.37 339.16a15.27 15.27 0 0 1-3.95 11.88zM510.58 821.21a20 20 0 0 0-20 20v77.35a20 20 0 0 0 20 20 20 20 0 0 0 20-20v-77.35a20 20 0 0 0-20-20zM646.51 812.9a20 20 0 0 0-28.28 0 20 20 0 0 0 0 28.28l54.7 54.7a20 20 0 0 0 28.28-28.28zM374.64 812.9l-54.7 54.7a20 20 0 1 0 28.28 28.28l54.7-54.7a20 20 0 1 0-28.28-28.28z" fill="#887262" p-id="6885"></path><path d="M572.63 274m-15 0a15 15 0 1 0 30 0 15 15 0 1 0-30 0Z" fill="#FFFFFF" p-id="6886"></path><path d="M792.49 402.07c-20.9-46.88-58.18-84.41-107.81-108.55-37.23-18.1-68.28-22.37-69.58-22.55a15 15 0 0 0-3.95 29.74c1.1 0.15 110.3 15.7 153.94 113.57a15 15 0 1 0 27.4-12.22z" fill="#FFFFFF" p-id="6887"></path></svg>