<?xml version="1.0" standalone="no"?><!DOCTYPE svg PUBLIC "-//W3C//DTD SVG 1.1//EN" "http://www.w3.org/Graphics/SVG/1.1/DTD/svg11.dtd"><svg t="1683170445459" class="icon" viewBox="0 0 1024 1024" version="1.1" xmlns="http://www.w3.org/2000/svg" p-id="2817" xmlns:xlink="http://www.w3.org/1999/xlink" width="200" height="200"><path d="M213.333333 469.333333h576v128H213.333333z" fill="#E9FF5B" p-id="2818"></path><path d="M187.989333 684.117333a21.333333 21.333333 0 0 1 15.082667 26.133334L169.941333 833.92a21.333333 21.333333 0 1 1-41.216-11.050667l33.130667-123.626666a21.333333 21.333333 0 0 1 26.133333-15.104z m341.333334 0a21.333333 21.333333 0 0 1 15.082666 26.133334l-33.130666 123.648a21.333333 21.333333 0 1 1-41.216-11.050667l33.130666-123.626667a21.333333 21.333333 0 0 1 26.133334-15.104z m320 0a21.333333 21.333333 0 0 1 15.082666 26.133334l-33.130666 123.648a21.333333 21.333333 0 1 1-41.216-11.050667l33.130666-123.626667a21.333333 21.333333 0 0 1 26.133334-15.104z m-496.192-0.725333a21.333333 21.333333 0 0 1 15.082666 26.133333l-22.08 82.432a21.333333 21.333333 0 0 1-41.216-11.050666l22.08-82.432a21.333333 21.333333 0 0 1 26.133334-15.082667z m341.333333 0a21.333333 21.333333 0 0 1 15.082667 26.133333l-22.08 82.432a21.333333 21.333333 0 0 1-41.216-11.050666l22.08-82.432a21.333333 21.333333 0 0 1 26.133333-15.082667zM917.333333 213.333333a64 64 0 0 1 64 64v298.666667a64 64 0 0 1-64 64H106.666667a64 64 0 0 1-64-64V277.333333a64 64 0 0 1 64-64h810.666666z m0 42.666667H106.666667a21.333333 21.333333 0 0 0-21.333334 21.333333v298.666667a21.333333 21.333333 0 0 0 21.333334 21.333333h85.333333v-85.333333a42.666667 42.666667 0 0 1 42.666667-42.666667h554.666666a42.666667 42.666667 0 0 1 42.666667 42.666667v85.333333h85.333333a21.333333 21.333333 0 0 0 21.333334-21.333333V277.333333a21.333333 21.333333 0 0 0-21.333334-21.333333z m-128 256H234.666667v85.333333h554.666666v-85.333333z m42.666667-213.333333a64 64 0 1 1 0 128 64 64 0 0 1 0-128z m0 42.666666a21.333333 21.333333 0 1 0 0 42.666667 21.333333 21.333333 0 0 0 0-42.666667z m-618.666667-21.333333a21.333333 21.333333 0 0 1 0 42.666667H170.666667a21.333333 21.333333 0 0 1 0-42.666667h42.666666z" fill="#4E4E4E" p-id="2819"></path></svg>